<svg width="24" height="24" viewBox="0 0 24 24" fill="none" xmlns="http://www.w3.org/2000/svg">
<path d="M20 11H6.82998L9.70998 8.11999C10.1 7.72999 10.1 7.09999 9.70998 6.70999C9.61747 6.61728 9.50758 6.54373 9.3866 6.49355C9.26563 6.44337 9.13595 6.41754 9.00498 6.41754C8.87401 6.41754 8.74433 6.44337 8.62336 6.49355C8.50238 6.54373 8.39249 6.61728 8.29998 6.70999L3.70998 11.3C3.31998 11.69 3.31998 12.32 3.70998 12.71L8.29998 17.3C8.68998 17.69 9.31998 17.69 9.70998 17.3C10.1 16.91 10.1 16.28 9.70998 15.89L6.82998 13H20C20.55 13 21 12.55 21 12C21 11.45 20.55 11 20 11Z" fill="#7D19E0"/>
</svg>
