<svg width="30" height="30" viewBox="0 0 30 30" fill="none" xmlns="http://www.w3.org/2000/svg">
<g clip-path="url(#clip0_227_7)">
<path d="M20 0H10C4.47715 0 0 4.47715 0 10V20C0 25.5228 4.47715 30 10 30H20C25.5228 30 30 25.5228 30 20V10C30 4.47715 25.5228 0 20 0Z" fill="#ECDCD1"/>
<path d="M20.3138 11.1213C20.7043 10.7308 20.7043 10.0976 20.3138 9.70711C19.9233 9.31658 19.2901 9.31658 18.8996 9.70711L9.70719 18.8995C9.31667 19.29 9.31667 19.9232 9.70719 20.3137C10.0977 20.7042 10.7309 20.7042 11.1214 20.3137L20.3138 11.1213Z" fill="#C17D4F"/>
<path d="M11.1213 9.70708C10.7308 9.31655 10.0976 9.31655 9.70711 9.70708C9.31658 10.0976 9.31658 10.7308 9.70711 11.1213L18.8995 20.3137C19.29 20.7042 19.9232 20.7042 20.3137 20.3137C20.7042 19.9232 20.7042 19.29 20.3137 18.8995L11.1213 9.70708Z" fill="#C17D4F"/>
</g>
<defs>
<clipPath id="clip0_227_7">
<rect width="30" height="30" fill="white"/>
</clipPath>
</defs>
</svg>
