<svg width="81" height="81" viewBox="0 0 81 81" fill="none" xmlns="http://www.w3.org/2000/svg">
<rect width="7" height="12" rx="3.5" transform="matrix(0.997631 0.0687897 -0.610505 0.792013 18.326 57)" fill="#383838"/>
<rect width="7" height="12" rx="3.5" transform="matrix(0.997631 0.0687897 -0.610505 0.792013 28.326 46)" fill="#383838"/>
<rect width="7" height="12" rx="3.5" transform="matrix(0.997631 0.0687897 -0.610505 0.792013 37.326 36)" fill="#383838"/>
<rect width="7" height="12" rx="3.5" transform="matrix(0.997631 0.0687897 -0.610505 0.792013 46.326 25)" fill="#383838"/>
<rect width="7" height="12" rx="3.5" transform="matrix(0.997631 0.0687897 -0.610505 0.792013 55.326 14)" fill="#383838"/>
<path d="M3.05176e-05 5C3.05176e-05 2.23858 2.23861 0 5.00003 0V0C7.76145 0 10 2.23858 10 5V81V81C4.47718 81 3.05176e-05 76.5228 3.05176e-05 71V5Z" fill="#383838"/>
<path d="M76.0001 71C78.7615 71 81.0001 73.2386 81.0001 76V76C81.0001 78.7614 78.7615 81 76.0001 81L10.0001 81C4.47721 81 6.07937e-05 76.5228 6.10352e-05 71V71L76.0001 71Z" fill="#FB9D39"/>
</svg>
