<svg width="30" height="30" viewBox="0 0 30 30" fill="none" xmlns="http://www.w3.org/2000/svg">
<g clip-path="url(#clip0_227_2)">
<path d="M20 0H10C4.47715 0 0 4.47715 0 10V20C0 25.5228 4.47715 30 10 30H20C25.5228 30 30 25.5228 30 20V10C30 4.47715 25.5228 0 20 0Z" fill="#ECDCD1"/>
<path d="M14.9999 10.5C16.1597 10.5 17.0999 9.55979 17.0999 8.39999C17.0999 7.24019 16.1597 6.29999 14.9999 6.29999C13.8401 6.29999 12.8999 7.24019 12.8999 8.39999C12.8999 9.55979 13.8401 10.5 14.9999 10.5Z" fill="#C17D4F"/>
<path d="M14.9999 17.1C16.1597 17.1 17.0999 16.1598 17.0999 15C17.0999 13.8402 16.1597 12.9 14.9999 12.9C13.8401 12.9 12.8999 13.8402 12.8999 15C12.8999 16.1598 13.8401 17.1 14.9999 17.1Z" fill="#C17D4F"/>
<path d="M14.9999 23.7C16.1597 23.7 17.0999 22.7598 17.0999 21.6C17.0999 20.4402 16.1597 19.5 14.9999 19.5C13.8401 19.5 12.8999 20.4402 12.8999 21.6C12.8999 22.7598 13.8401 23.7 14.9999 23.7Z" fill="#C17D4F"/>
</g>
<defs>
<clipPath id="clip0_227_2">
<rect width="30" height="30" fill="white"/>
</clipPath>
</defs>
</svg>
