<svg width="81" height="81" viewBox="0 0 81 81" fill="none" xmlns="http://www.w3.org/2000/svg">
<path d="M71 71L71 81L10 81L10 71L71 71Z" fill="#383838"/>
<path d="M71 0L71 10L10 10L10 -2.66639e-06L71 0Z" fill="#383838"/>
<path d="M0 10C0 4.47715 4.47715 0 10 0V0V81V81C4.47715 81 0 76.5228 0 71V10Z" fill="#383838"/>
<path d="M81 10C81 4.47715 76.5228 0 71 0V0V81V81C76.5228 81 81 76.5228 81 71V10Z" fill="#383838"/>
<path d="M22.6328 22.875V57H15.7656V22.875H22.6328ZM39.5781 22.875L28.5156 39.8203L21.7422 48.2578L20.4297 41.3906L24.8125 34.0781L31.2344 22.875H39.5781ZM31.6562 57L24.2031 41.3203L29.2422 36.8672L39.7422 57H31.6562ZM64.7734 39.0703V53.1328C64.2891 53.6484 63.5781 54.25 62.6406 54.9375C61.7188 55.6094 60.5078 56.2031 59.0078 56.7188C57.5234 57.2188 55.7109 57.4688 53.5703 57.4688C51.6797 57.4688 49.9609 57.1719 48.4141 56.5781C46.8828 55.9844 45.5625 55.0859 44.4531 53.8828C43.3594 52.6641 42.5234 51.1484 41.9453 49.3359C41.3672 47.5078 41.0781 45.3438 41.0781 42.8438V37.0312C41.0781 34.5625 41.3516 32.4141 41.8984 30.5859C42.4609 28.7422 43.2734 27.2109 44.3359 25.9922C45.3984 24.7734 46.6641 23.8672 48.1328 23.2734C49.6172 22.6797 51.2891 22.3828 53.1484 22.3828C55.7109 22.3828 57.8125 22.8125 59.4531 23.6719C61.1094 24.5312 62.3594 25.8047 63.2031 27.4922C64.0625 29.1797 64.5781 31.25 64.75 33.7031H58.1172C58.0078 32.2656 57.7656 31.1406 57.3906 30.3281C57.0312 29.5156 56.5234 28.9375 55.8672 28.5938C55.2109 28.2344 54.3594 28.0547 53.3125 28.0547C52.4062 28.0547 51.6172 28.2188 50.9453 28.5469C50.2734 28.8594 49.7109 29.375 49.2578 30.0938C48.8047 30.8125 48.4688 31.7344 48.25 32.8594C48.0312 33.9844 47.9219 35.3594 47.9219 36.9844V42.8438C47.9219 44.4531 48.0469 45.8281 48.2969 46.9688C48.5469 48.1094 48.9141 49.0391 49.3984 49.7578C49.8984 50.4766 50.5234 51 51.2734 51.3281C52.0391 51.6406 52.9375 51.7969 53.9688 51.7969C54.7969 51.7969 55.4609 51.7109 55.9609 51.5391C56.4609 51.3672 56.8594 51.1875 57.1562 51C57.4688 50.7969 57.7266 50.6406 57.9297 50.5312V44.25H53.0312V39.0703H64.7734Z" fill="#FB9D39"/>
</svg>
